<?xml version="1.0" encoding="UTF-8"?>
<svg xmlns="http://www.w3.org/2000/svg" viewBox="0 0 1024 1024" width="512" height="512">
  <g transform="translate(0,1024) scale(0.1,-0.1)" fill="#EC6A37" stroke="none">
    <path d="M5095 7745 c-5 -2 -22 -6 -37 -9 -34 -8 -94 -59 -114 -97 -18 -35
-18 -120 0 -162 7 -18 32 -49 55 -69 l41 -35 0 -776 0 -777 -27 -6 c-51 -11
-104 -25 -119 -31 l-14 -5 0 393 0 394 -70 73 c-38 39 -73 73 -77 73 -5 1 -45
41 -90 89 l-83 88 0 74 0 74 41 39 c22 22 48 53 56 70 l16 29 0 51 1 50 -22
42 c-26 50 -63 78 -126 94 l-47 12 -42 -13 c-79 -23 -128 -76 -142 -153 l-7
-38 12 -45 13 -45 48 -43 49 -44 0 -114 0 -113 155 -155 155 -155 0 -406 0
-407 -17 -8 c-25 -10 -46 -6 -60 13 -30 38 -185 193 -194 193 -6 0 -8 4 -5 9
6 9 -133 146 -149 146 -5 1 -9 6 -8 11 2 12 -137 153 -152 154 -5 0 -10 4 -10
8 0 6 -380 386 -512 511 l-15 14 7 42 6 43 -12 46 -11 46 -39 38 -38 38 -39
12 c-57 17 -92 15 -142 -10 l-45 -23 -29 -42 -29 -42 -5 -49 -4 -49 20 -45 20
-45 33 -26 c43 -32 101 -48 153 -41 l41 6 269 -271 c148 -148 274 -267 279
-264 6 3 7 2 4 -4 -8 -12 497 -516 507 -506 4 4 7 3 5 -2 -1 -6 1 -18 6 -28
l7 -17 -12 -15 -13 -16 -403 3 -404 3 0 10 c0 6 -62 72 -137 148 l-138 137
-122 0 -123 0 0 9 c0 5 -12 24 -27 42 -52 62 -151 86 -224 55 -38 -16 -93 -69
-82 -79 3 -4 2 -7 -4 -7 -14 0 -33 -54 -33 -92 0 -56 67 -167 92 -152 4 3 8 1
8 -4 0 -25 82 -39 150 -25 l33 6 51 49 50 48 76 0 77 0 23 -25 c12 -13 28 -22
34 -18 l11 6 -8 -8 -8 -9 128 -128 128 -128 384 0 383 0 -6 -22 c-3 -13 -11
-49 -18 -80 l-12 -58 -773 0 -773 0 -41 45 c-23 25 -44 43 -47 41 -2 -3 -14 1
-26 9 l-20 15 -49 0 -48 0 -37 -19 c-97 -50 -136 -153 -93 -246 20 -43 77
-103 87 -92 4 3 13 0 21 -8 l14 -15 52 0 51 0 42 20 42 21 23 34 24 35 776 0
777 0 5 -27 6 -28 -385 -385 -384 -385 -95 -2 -96 -2 -12 16 c-75 97 -162 126
-252 84 -122 -56 -152 -206 -60 -302 52 -55 123 -72 207 -49 l37 11 39 44 40
45 126 0 126 0 0 10 c0 5 4 9 9 7 5 -1 173 161 374 361 200 199 369 362 374
362 6 0 27 -27 47 -60 l38 -61 -11 -13 c-6 -7 -8 -16 -4 -19 3 -4 0 -7 -8 -7
-11 0 -706 -691 -973 -969 l-68 -71 -63 0 c-102 0 -158 -33 -196 -115 -37 -80
-18 -159 52 -219 l42 -36 34 -6 c86 -16 167 19 209 92 l25 43 2 78 2 78 11 -2
c5 -1 246 234 534 523 289 288 530 524 535 524 6 0 16 -5 23 -12 l12 -12 0
-401 0 -400 -155 -155 -155 -155 0 -115 0 -115 -29 -19 c-37 -25 -79 -90 -87
-134 l-7 -35 17 -53 17 -52 34 -31 c19 -16 54 -35 76 -41 l42 -12 36 7 c20 4
55 18 79 31 l42 25 21 41 21 41 -1 55 0 55 -26 38 c-13 21 -38 48 -55 60 l-30
23 0 80 0 81 140 138 c78 75 137 137 133 137 -4 0 3 6 17 13 l25 13 3 398 2
398 23 -6 c12 -3 48 -11 80 -18 l57 -12 0 -775 0 -774 -39 -33 c-21 -18 -46
-49 -55 -68 l-16 -34 0 -49 0 -48 19 -42 19 -42 40 -26 39 -26 50 -5 50 -6 46
20 c52 23 101 67 92 82 -3 6 -1 10 5 10 6 0 9 4 5 9 -3 5 -1 12 5 16 5 3 10
27 10 53 l0 47 -19 40 c-18 39 -71 98 -71 79 0 -5 -5 -2 -10 6 l-10 15 0 776
0 775 73 17 c39 10 75 17 80 17 4 0 7 -177 7 -393 l0 -392 155 -155 155 -155
0 -83 0 -83 -37 -32 c-83 -73 -95 -186 -26 -267 14 -17 28 -28 31 -26 3 3 10
-1 16 -10 6 -8 31 -20 56 -25 l44 -10 48 11 48 12 39 38 39 38 10 47 10 48
-13 51 -13 51 -46 42 -46 41 0 114 0 113 -155 155 -155 155 0 405 0 405 19 12
18 11 113 -113 c63 -63 118 -111 123 -108 6 3 7 2 4 -4 -3 -5 185 -200 418
-433 l424 -424 -6 -46 -5 -47 12 -37 c26 -79 103 -135 188 -136 l43 0 38 20
c120 60 145 204 53 300 -46 49 -79 61 -156 59 l-61 -2 -150 152 c-403 409
-858 861 -866 861 -6 0 -7 5 -4 10 l6 10 -24 9 c-13 5 -27 19 -30 30 l-5 20
17 15 18 16 380 0 380 0 117 -120 116 -120 105 0 105 0 47 -49 48 -49 45 -12
c50 -14 93 -9 144 15 l35 17 31 46 30 45 0 54 c0 30 -6 68 -14 86 -14 36 -82
101 -96 92 -4 -3 -10 0 -12 6 l-4 12 -55 0 -54 0 -42 -22 c-24 -11 -52 -35
-65 -51 l-22 -30 -81 0 -80 0 -120 120 -120 120 -373 0 -374 0 5 13 c3 6 13
42 23 80 l18 67 772 0 772 0 27 -36 c15 -20 46 -45 69 -55 l41 -19 46 0 c58 0
105 19 143 59 17 17 26 31 22 31 -4 0 -1 7 8 15 8 8 18 35 21 59 l7 45 -12 36
c-48 146 -229 179 -340 61 l-34 -36 -771 0 -771 0 -17 73 c-10 39 -17 75 -17
80 0 4 170 7 377 7 l377 0 156 155 156 155 78 0 78 0 54 -49 54 -50 44 -6
c107 -16 200 40 226 137 l11 40 -6 39 c-4 22 -13 46 -20 53 -8 7 -12 16 -10
18 9 9 -61 66 -94 77 -90 30 -201 -10 -240 -86 l-12 -23 -117 0 -117 0 -138
-137 c-75 -76 -136 -142 -134 -148 l2 -10 -412 -3 -412 -3 -10 20 -11 19 115
113 c63 62 111 117 108 122 -3 6 -2 7 4 4 8 -5 763 744 821 816 l22 27 73 0
73 0 41 27 41 26 23 41 23 41 0 54 0 55 -11 3 c-7 3 -10 10 -7 17 3 7 -13 31
-35 54 l-40 41 -38 10 c-57 16 -84 13 -140 -14 l-51 -26 -28 -41 -29 -41 0
-81 -1 -81 -10 0 c-13 0 -1024 -1014 -1024 -1027 0 -5 -10 -12 -22 -17 l-23
-8 -17 11 -18 11 0 385 0 385 46 48 c25 26 49 47 54 47 5 0 16 10 24 22 l16
22 0 106 0 105 28 19 c42 29 70 69 83 118 l12 45 -13 48 -13 47 -41 39 -40 39
-40 11 -40 11 -42 -7 -42 -6 -39 -28 c-22 -16 -48 -46 -58 -67 l-19 -39 1 -54
0 -53 14 -9 c8 -5 10 -9 6 -9 -14 0 27 -61 56 -82 l27 -19 0 -78 0 -79 -70
-66 -70 -66 0 -374 0 -374 -52 13 c-29 7 -65 16 -80 19 l-28 6 0 778 0 777 36
29 c44 35 73 97 74 155 l0 45 -20 40 c-33 68 -136 121 -195 101z m83 -141 c12
-14 22 -36 22 -50 l0 -25 -25 -24 -24 -25 -31 0 -31 0 -24 25 c-29 28 -32 61
-9 93 33 47 82 49 122 6z m-641 -326 l23 -21 0 -29 0 -29 -25 -24 -24 -25 -28
0 c-35 1 -59 19 -73 54 l-10 27 15 29 c16 32 27 38 69 39 l30 1 23 -22z m1101
-228 l22 -21 0 -31 0 -32 -22 -23 -21 -23 -31 0 -30 0 -23 22 -23 21 0 34 0
33 20 20 20 20 33 0 33 0 22 -20z m-2168 -170 l20 -20 0 -32 0 -32 -22 -23
-21 -23 -34 0 -33 0 -20 20 -20 20 0 35 0 35 20 20 20 20 35 0 35 0 20 -20z
m3407 -2 l23 -21 0 -31 0 -30 -22 -23 -21 -23 -32 0 -31 0 -22 20 -22 21 0 34
0 35 20 20 20 20 32 0 32 0 23 -22z m-3792 -1073 l25 -24 0 -35 0 -35 -26 -20
c-34 -27 -66 -27 -99 2 l-26 22 -1 34 -1 34 27 24 c15 12 38 23 52 23 l25 0
24 -25z m4170 0 l25 -24 0 -29 c0 -39 -27 -70 -66 -78 l-31 -6 -26 24 c-14 12
-29 35 -33 50 l-6 27 30 31 30 30 27 0 26 0 24 -25z m-2055 -135 c221 -35 401
-195 455 -405 l15 -59 0 -94 0 -93 -25 -76 c-47 -138 -150 -257 -278 -322
l-62 -31 -84 -17 -84 -17 -81 13 c-45 6 -90 13 -101 14 -11 1 -22 4 -25 7 -3
3 -32 19 -65 35 l-60 28 -75 76 -76 76 -29 60 c-17 33 -32 62 -35 65 -3 3 -5
10 -5 15 0 6 -7 49 -14 97 l-14 86 16 88 16 88 31 63 c58 118 180 227 305 272
105 38 177 46 275 31z m-2466 -492 c14 -13 28 -35 32 -50 l6 -27 -30 -31 -30
-30 -27 0 -26 0 -24 25 -25 24 0 31 0 31 25 24 24 25 25 0 c14 0 36 -10 50
-22z m4879 -9 c9 -12 17 -34 17 -51 l0 -29 -25 -24 -24 -25 -26 0 -27 0 -29
29 c-37 37 -37 65 1 103 l31 30 32 -6 c18 -3 40 -16 50 -27z m-433 -616 l0
-29 -20 -22 -21 -22 -34 0 -35 0 -20 20 -20 20 0 33 c0 18 6 41 13 51 l14 19
39 6 39 6 23 -26 22 -27 0 -29z m-3861 -348 c31 -16 41 -33 41 -71 l0 -25 -25
-24 -24 -25 -24 0 c-29 0 -73 32 -79 58 -8 28 18 81 44 92 32 12 35 12 67 -5z
m146 -740 l25 -24 0 -26 c0 -39 -16 -62 -50 -74 l-31 -10 -22 8 c-33 13 -50
38 -50 72 l0 29 23 25 23 25 29 0 29 0 24 -25z m3410 0 l25 -24 0 -29 c0 -17
-8 -40 -19 -53 l-18 -23 -37 0 -36 0 -21 20 -20 21 -1 33 -1 33 27 24 c15 12
38 23 52 23 l25 0 24 -25z m-2340 -400 l25 -24 0 -30 0 -30 -22 -20 c-44 -42
-100 -32 -126 21 l-12 26 10 29 c14 36 37 53 72 53 l29 0 24 -25z m1270 0 l25
-24 0 -25 c0 -38 -10 -55 -41 -72 l-29 -14 -24 6 c-14 3 -32 14 -42 25 l-17
19 0 32 0 31 27 24 c15 12 38 23 52 23 l25 0 24 -25z m-630 -330 l25 -24 0
-26 0 -27 -29 -29 c-16 -16 -39 -29 -51 -29 -12 0 -35 13 -51 29 l-29 29 0 27
0 26 25 24 24 25 31 0 31 0 24 -25z"/>
  </g>
</svg>
