<svg xmlns="http://www.w3.org/2000/svg" viewBox="0 0 120 120" fill="none" role="img" aria-hidden="true">
  <defs>
    <linearGradient id="g-shield" x1="20" y1="10" x2="100" y2="110" gradientUnits="userSpaceOnUse">
      <stop offset="0%" stop-color="#9BC4A0"/>
      <stop offset="45%" stop-color="#3D8B5A"/>
      <stop offset="100%" stop-color="#004225"/>
    </linearGradient>
    <linearGradient id="g-shield-shine" x1="30" y1="15" x2="70" y2="80" gradientUnits="userSpaceOnUse">
      <stop offset="0%" stop-color="#fff" stop-opacity="0.75"/>
      <stop offset="55%" stop-color="#fff" stop-opacity="0.08"/>
      <stop offset="100%" stop-color="#fff" stop-opacity="0"/>
    </linearGradient>
    <filter id="f-shield" x="-20%" y="-20%" width="140%" height="140%">
      <feGaussianBlur in="SourceAlpha" stdDeviation="2.5" result="b"/>
      <feOffset dy="3" result="o"/>
      <feFlood flood-color="#004225" flood-opacity="0.35"/>
      <feComposite in2="o" operator="in"/>
      <feMerge>
        <feMergeNode/>
        <feMergeNode in="SourceGraphic"/>
      </feMerge>
    </filter>
  </defs>
  <g filter="url(#f-shield)">
    <path d="M60 14c14 8 28 10 38 12v34c0 24-16 42-38 48C38 102 22 84 22 60V26c10-2 24-4 38-12z" fill="url(#g-shield)" opacity="0.92"/>
    <path d="M60 14c14 8 28 10 38 12v34c0 24-16 42-38 48C38 102 22 84 22 60V26c10-2 24-4 38-12z" fill="url(#g-shield-shine)"/>
    <path d="M60 18c12 7 24 9 33 10.5V59c0 20-13.5 35.5-33 40.5C40.5 94.5 27 79 27 59V28.5C37 26.8 48 24.5 60 18z" stroke="#E8F5EC" stroke-opacity="0.45" stroke-width="1.5"/>
    <path d="M44 58.5 54 68.5 78 44.5" stroke="#FBF8F3" stroke-width="5" stroke-linecap="round" stroke-linejoin="round" opacity="0.95"/>
  </g>
</svg>
